<?xml version="1.0" standalone="no"?>
<!DOCTYPE svg PUBLIC "-//W3C//DTD SVG 20010904//EN"
 "http://www.w3.org/TR/2001/REC-SVG-20010904/DTD/svg10.dtd">
<svg version="1.0" xmlns="http://www.w3.org/2000/svg"
 width="512.000000pt" height="512.000000pt" viewBox="0 0 512.000000 512.000000"
 preserveAspectRatio="xMidYMid meet">
<metadata>
Created by potrace 1.14, written by Peter Selinger 2001-2017
</metadata>
<g transform="translate(0.000000,512.000000) scale(0.100000,-0.100000)"
fill="#000000" stroke="none">
<path d="M1444 4947 c-59 -19 -110 -65 -139 -123 -15 -32 -29 -39 -101 -50
-21 -3 -77 -12 -124 -20 -47 -8 -101 -17 -120 -20 -58 -9 -122 -42 -157 -82
-18 -20 -33 -40 -33 -44 0 -4 -12 -16 -27 -25 -21 -14 -56 -19 -166 -23 -181
-7 -176 -1 -177 -192 0 -86 4 -147 12 -164 10 -21 65 -52 270 -155 l259 -129
204 0 203 0 99 -51 c291 -152 483 -313 561 -472 74 -151 116 -345 138 -637 3
-41 7 -91 9 -111 6 -67 -32 -112 -105 -126 -47 -8 -125 -50 -166 -89 -51 -49
-76 -86 -99 -146 l-18 -48 -94 0 c-103 0 -136 -13 -147 -56 l-6 -24 -680 0
-680 0 0 -1000 0 -1000 2400 0 2400 0 0 1000 0 1000 -639 0 -639 0 -11 30
c-14 43 -43 50 -199 51 l-137 1 95 13 c52 7 115 18 140 25 25 6 54 13 66 15
118 26 324 117 436 192 83 56 209 176 260 248 64 90 116 211 135 315 16 87 8
471 -12 570 -3 14 -7 36 -10 50 -20 103 -21 108 -45 184 -73 233 -225 446
-414 580 -131 93 -317 173 -521 225 -89 23 -105 26 -220 46 -44 7 -87 16 -95
19 -8 2 -33 7 -55 10 -86 11 -163 29 -267 62 -104 32 -198 47 -303 48 -58 0
-238 -12 -275 -19 -14 -2 -65 -11 -115 -20 -49 -8 -137 -27 -195 -40 -135 -32
-138 -33 -159 -40 -15 -4 -20 5 -30 52 -11 49 -21 66 -65 108 -71 70 -152 91
-242 62z"/>
</g>
</svg>
